<svg width="33" height="32" viewBox="0 0 33 32" fill="none" xmlns="http://www.w3.org/2000/svg">
<path d="M17.11 16.46C17.11 19.32 15.62 21.13 13.24 21.13C10.86 21.13 9.37 19.32 9.37 16.46C9.37 13.59 10.86 11.79 13.24 11.79C15.62 11.79 17.11 13.59 17.11 16.46ZM32.25 8.8V23.2C32.25 24.34 32.24 26.14 31.62 27.74C31.31 28.53 30.59 29.64 29.57 30.43C28.98 30.88 28.28 31.32 27.32 31.6C26.29 31.9 25.02 32 23.45 32H9.05C7.48 32 6.21 31.9 5.18 31.59C4.22 31.3 3.52 30.87 2.93 30.42C1.91 29.64 1.19 28.52 0.88 27.73C0.26 26.14 0.25 24.34 0.25 23.2V8.8C0.25 7.66 0.26 5.86 0.88 4.26C1.19 3.47 1.91 2.36 2.93 1.57C3.52 1.12 4.22 0.68 5.18 0.4C6.21 0.0999996 7.48 0 9.05 0H23.45C25.03 0 26.29 0.0999998 27.32 0.41C28.28 0.7 28.99 1.13 29.57 1.58C30.59 2.36 31.31 3.48 31.62 4.27C32.24 5.86 32.25 7.66 32.25 8.8ZM6.56 22.27V15.33H5.13V22.27H6.56ZM6.66 13.4C6.66 12.95 6.3 12.58 5.84 12.58C5.39 12.58 5.02 12.94 5.02 13.4C5.02 13.85 5.39 14.22 5.84 14.22C6.3 14.21 6.66 13.85 6.66 13.4ZM18.6 16.46C18.6 12.77 16.54 10.45 13.24 10.45C9.94 10.45 7.88 12.77 7.88 16.46C7.88 20.15 9.94 22.46 13.24 22.46C16.54 22.46 18.6 20.15 18.6 16.46ZM27.88 18.97C27.88 17.33 26.92 16.36 24.5 15.83L23.21 15.55C21.62 15.2 21 14.57 21 13.66C21 12.47 22.12 11.77 23.57 11.77C25.09 11.77 26.09 12.55 26.22 13.82H27.67C27.6 11.85 25.93 10.46 23.61 10.46C21.2 10.46 19.51 11.81 19.51 13.72C19.51 15.37 20.52 16.43 22.85 16.93L24.14 17.21C25.75 17.56 26.4 18.21 26.4 19.18C26.4 20.33 25.25 21.15 23.68 21.15C22.01 21.15 20.85 20.39 20.68 19.14H19.23C19.37 21.15 21.06 22.45 23.6 22.45C26.19 22.46 27.88 21.12 27.88 18.97Z" fill="#1D1D1F"/>
</svg>
