<svg width="37" height="47" viewBox="0 0 37 47" fill="none" xmlns="http://www.w3.org/2000/svg">
<path d="M13.7178 46H4.8599H4.532C4.09317 46.0109 3.65425 45.9818 3.2207 45.913C2.99493 45.8713 2.77614 45.7981 2.5707 45.6955C2.18684 45.5012 1.87505 45.1894 1.6807 44.8055C1.57809 44.6001 1.50487 44.3813 1.4632 44.1555C1.42228 43.9349 1.39762 43.7116 1.3894 43.4874C1.377 43.2339 1.376 42.9596 1.3755 42.6984V8.21914C1.3755 7.95814 1.377 7.68374 1.3894 7.42914C1.39768 7.20565 1.42225 6.98306 1.4629 6.76314C1.5047 6.53715 1.57801 6.31815 1.6807 6.11254C1.87491 5.72859 2.18675 5.41676 2.5707 5.22254C2.77626 5.11977 2.99528 5.04649 3.2213 5.00484C3.49389 4.95567 3.77004 4.92891 4.047 4.92484C4.2789 4.91764 4.5704 4.91714 4.8348 4.91714H5.2418H6.2549C6.29434 4.91708 6.3334 4.92479 6.36986 4.93984C6.40631 4.95488 6.43944 4.97697 6.46736 5.00484C6.49527 5.0327 6.51741 5.06579 6.53252 5.10222C6.54762 5.13865 6.5554 5.17771 6.5554 5.21714V5.60714C6.55585 5.87264 6.66174 6.12709 6.84978 6.31453C7.03781 6.50197 7.2926 6.60704 7.5581 6.60664H12.8762V4.83534V4.43644C12.8762 4.26464 12.8826 4.17474 12.8862 4.00014H5.0418L4.8342 4.00004C4.5596 4.00004 4.2564 4.00074 4.0154 4.00824C3.68665 3.98706 3.35673 3.99221 3.0288 4.02364C2.71169 4.08311 2.40449 4.18679 2.1162 4.33164C1.54398 4.6217 1.07911 5.0866 0.7891 5.65884C0.644271 5.94712 0.540562 6.25428 0.481 6.57134C0.431212 6.8388 0.400833 7.10951 0.3901 7.38134C0.377 7.64984 0.3755 7.94074 0.375 8.21734V8.58434V42.3331V42.7003C0.375 42.9767 0.377 43.2676 0.3901 43.5362C0.400834 43.8081 0.431213 44.0788 0.481 44.3462C0.540545 44.6633 0.644255 44.9705 0.7891 45.2588C1.07928 45.831 1.5441 46.2958 2.1162 46.586C2.40453 46.7308 2.71171 46.8345 3.0288 46.894C3.52407 46.976 4.02592 47.0115 4.5278 47C4.63773 47 4.74843 47 4.8599 47H14.6599C14.2868 46.7277 13.9674 46.3887 13.7177 46H13.7178ZM8.7537 4.41944C8.75375 4.38422 8.76778 4.35046 8.79269 4.32556C8.81761 4.30067 8.85138 4.28667 8.8866 4.28664H11.971C12.0062 4.28667 12.04 4.30066 12.065 4.32555C12.0899 4.35044 12.104 4.3842 12.1041 4.41944V4.44004C12.104 4.4753 12.09 4.50909 12.065 4.534C12.0401 4.55891 12.0063 4.57292 11.971 4.57294H8.8866C8.85136 4.57292 8.81757 4.55891 8.79265 4.53399C8.76774 4.50907 8.75373 4.47528 8.7537 4.44004V4.41944ZM7.2178 5.30004C7.26222 5.22652 7.32613 5.16673 7.40246 5.12731C7.47878 5.0879 7.56453 5.07039 7.6502 5.07674C7.7627 5.08611 7.86757 5.13741 7.94401 5.22048C8.02045 5.30354 8.06288 5.41231 8.06288 5.52519C8.06288 5.63808 8.02045 5.74685 7.94401 5.82991C7.86757 5.91298 7.7627 5.96428 7.6502 5.97364C7.56786 5.98156 7.48494 5.96663 7.41053 5.93049C7.33612 5.89436 7.27312 5.83841 7.22844 5.7688C7.18375 5.69919 7.15912 5.61861 7.15724 5.53592C7.15537 5.45322 7.17632 5.37161 7.2178 5.30004ZM36.3749 4.68804C36.3744 4.38624 36.3727 4.06874 36.3585 3.77574C36.3469 3.4791 36.3138 3.18369 36.2594 2.89184C36.1946 2.54633 36.0816 2.21163 35.9237 1.89754C35.6078 1.27392 35.1012 0.76733 34.4776 0.451444C34.1635 0.293594 33.8288 0.180593 33.4833 0.115744C32.9383 0.0259975 32.386 -0.0125705 31.8338 0.00054367C31.6886 0.00054367 31.5421 0.00054367 31.3938 0.00054367H19.4601H19.2335C18.9345 0.00054367 18.6041 0.00144373 18.3417 0.00954373C17.9811 0.0159777 17.6216 0.0516614 17.2667 0.116244C16.9212 0.181046 16.5865 0.294049 16.2724 0.451944C15.6488 0.76783 15.1422 1.27442 14.8263 1.89804C14.6684 2.21213 14.5554 2.54683 14.4906 2.89234C14.4361 3.18417 14.403 3.47959 14.3915 3.77624C14.3854 3.90204 14.3869 4.03624 14.3844 4.16794C14.3815 4.34284 14.3754 4.51634 14.3751 4.68854V5.08574V41.9157C14.3751 42.0499 14.3751 42.1823 14.3751 42.3129C14.3756 42.6147 14.3773 42.9322 14.3915 43.2251C14.403 43.5219 14.4361 43.8173 14.4906 44.1092C14.5554 44.4547 14.6684 44.7894 14.8263 45.1034C14.9834 45.4132 15.1885 45.6961 15.434 45.9418C15.4616 45.9693 15.494 45.9908 15.5226 46.0173C15.7465 46.2289 15.999 46.4082 16.2726 46.5497C16.5867 46.7075 16.9214 46.8205 17.2669 46.8852C17.5856 46.9426 17.9081 46.9757 18.2318 46.9842C18.4588 46.9935 18.6869 46.9994 18.9164 47.0003C19.0235 47.0008 19.1314 47.0008 19.2403 47.0003H31.2903H31.5181C31.8169 47.0003 32.1465 46.9994 32.4087 46.9913C32.7693 46.985 33.1288 46.9493 33.4837 46.8846C33.8292 46.8198 34.1639 46.7069 34.478 46.5491C35.1015 46.233 35.6081 45.7264 35.9241 45.1028C36.082 44.7888 36.195 44.4541 36.2598 44.1086C36.3142 43.8167 36.3473 43.5213 36.3589 43.2245C36.3731 42.9316 36.3748 42.6145 36.3753 42.3123C36.3753 42.1815 36.3753 42.0491 36.3753 41.9151V5.08524C36.3749 4.95104 36.3749 4.81894 36.3749 4.68804ZM23.6461 0.592844C23.6461 0.557631 23.6601 0.523868 23.685 0.498969C23.7099 0.47407 23.7437 0.46007 23.7789 0.460044H26.8634C26.8986 0.460097 26.9324 0.474105 26.9572 0.498998C26.9821 0.523892 26.9961 0.557639 26.9962 0.592844V0.613644C26.9962 0.648866 26.9822 0.682639 26.9573 0.707554C26.9324 0.732469 26.8986 0.746491 26.8634 0.746544H23.7789C23.7437 0.746517 23.7099 0.732503 23.685 0.707583C23.6601 0.682662 23.6461 0.648874 23.6461 0.613644V0.592844ZM22.16 1.43054C22.2013 1.36222 22.2594 1.30566 22.3289 1.26628C22.3983 1.22689 22.4767 1.20602 22.5565 1.20564L22.5926 1.20724C22.7051 1.21661 22.81 1.26791 22.8864 1.35097C22.9629 1.43404 23.0053 1.54281 23.0053 1.65569C23.0053 1.76858 22.9629 1.87735 22.8864 1.96041C22.81 2.04348 22.7051 2.09478 22.5926 2.10414L22.5569 2.10574C22.4773 2.10701 22.3988 2.08712 22.3294 2.04812C22.2599 2.00912 22.2021 1.95241 22.1618 1.88376C22.1214 1.81511 22.1 1.73698 22.0998 1.65736C22.0995 1.57774 22.1203 1.49947 22.1602 1.43054H22.16ZM35.3749 41.9148V42.3104C35.3749 42.5967 35.3717 42.8979 35.3583 43.1764C35.3491 43.4248 35.3219 43.6721 35.2768 43.9164C35.2297 44.1708 35.147 44.4173 35.0311 44.6486C34.8112 45.0836 34.458 45.4368 34.0231 45.6567C33.7919 45.7724 33.5455 45.855 33.2912 45.9018C32.9894 45.9564 32.6837 45.9861 32.3771 45.9905C32.1242 45.9983 31.8058 46.0005 31.5171 46.0005H19.2401L18.9198 46C18.6789 45.9991 18.4436 45.9933 18.214 45.9827C17.9606 45.9739 17.7081 45.9469 17.4586 45.9017C17.2043 45.8548 16.958 45.7724 16.7267 45.6567C16.2917 45.4365 15.9385 45.0832 15.7184 44.6481C15.6026 44.4168 15.52 44.1703 15.473 43.9158C15.4277 43.6715 15.4005 43.4242 15.3915 43.1758C15.3781 42.8979 15.3749 42.5967 15.3749 42.31V41.8714V5.08524V4.69004C15.3749 4.51744 15.3822 4.34304 15.3854 4.16784C15.3878 4.05244 15.3861 3.93454 15.3915 3.82394C15.4005 3.5756 15.4278 3.32825 15.4733 3.08394C15.5201 2.82949 15.6028 2.58294 15.7187 2.35164C15.9385 1.91666 16.2917 1.56343 16.7267 1.34364C16.958 1.22798 17.2043 1.14544 17.4586 1.09844C17.7604 1.04404 18.0661 1.01441 18.3727 1.00984C18.6261 1.00204 18.9447 1.00134 19.2335 1.00134H19.351H20.2018V1.00194H21.1461C21.1856 1.00184 21.2247 1.00952 21.2612 1.02455C21.2976 1.03958 21.3308 1.06166 21.3587 1.08953C21.3867 1.1174 21.4089 1.1505 21.424 1.18695C21.4391 1.2234 21.4469 1.26248 21.4469 1.30194V1.69194C21.447 1.82343 21.473 1.95361 21.5235 2.07504C21.5739 2.19647 21.6478 2.30677 21.7409 2.39964C21.834 2.4925 21.9445 2.56612 22.066 2.61627C22.1876 2.66643 22.3178 2.69214 22.4493 2.69194H28.2493C28.5127 2.69231 28.7655 2.5889 28.9532 2.40412C29.1408 2.21934 29.2481 1.96807 29.2518 1.70474L29.2567 1.29894C29.2579 1.21997 29.2901 1.14462 29.3463 1.08919C29.4026 1.03376 29.4784 1.00271 29.5574 1.00274H30.5741V1.00124H31.3932H31.8297C32.3188 0.989076 32.808 1.02141 33.2912 1.09784C33.5455 1.14478 33.7919 1.22733 34.0231 1.34304C34.4581 1.56309 34.8114 1.91646 35.0314 2.35154C35.1472 2.58265 35.2297 2.82895 35.2765 3.08314C35.3218 3.32748 35.3492 3.57481 35.3583 3.82314C35.3717 4.10114 35.3747 4.40244 35.3749 4.68904V5.12764V41.9148Z" fill="#1D1D1F"/>
</svg>
